<svg width="15" height="15" viewBox="0 0 15 15" fill="none" xmlns="http://www.w3.org/2000/svg">
<path d="M5.21336 2.56342C5.65794 1.26238 7.45561 1.22298 7.98272 2.44521L8.02732 2.56416L8.62729 4.31871C8.76478 4.72109 8.98697 5.0893 9.27887 5.39851C9.57077 5.70772 9.92558 5.95074 10.3194 6.11117L10.4807 6.17139L12.2353 6.77061C13.5363 7.21519 13.5757 9.01286 12.3542 9.53996L12.2353 9.58457L10.4807 10.1845C10.0782 10.3219 9.70983 10.5441 9.40049 10.836C9.09115 11.1279 8.84801 11.4828 8.68751 11.8766L8.62729 12.0372L8.02807 13.7925C7.58348 15.0935 5.78582 15.1329 5.25945 13.9115L5.21336 13.7925L4.61414 12.038C4.47673 11.6354 4.25458 11.2671 3.96268 10.9577C3.67078 10.6484 3.31592 10.4053 2.92204 10.2448L2.76146 10.1845L1.00691 9.58531C-0.294869 9.14073 -0.334272 7.34307 0.887962 6.8167L1.00691 6.77061L2.76146 6.17139C3.16384 6.03389 3.53205 5.8117 3.84126 5.5198C4.15048 5.22791 4.39349 4.87309 4.55392 4.47929L4.61414 4.31871L5.21336 2.56342ZM12.5683 1.34332e-07C12.7074 -1.75434e-07 12.8437 0.039015 12.9617 0.112612C13.0797 0.186208 13.1747 0.291435 13.2359 0.416333L13.2716 0.503317L13.5318 1.2661L14.2954 1.52631C14.4347 1.57366 14.5569 1.66133 14.6464 1.7782C14.7359 1.89507 14.7887 2.03588 14.7981 2.18279C14.8075 2.3297 14.7731 2.47609 14.6992 2.60341C14.6253 2.73073 14.5153 2.83325 14.3831 2.89797L14.2954 2.93366L13.5326 3.19387L13.2724 3.95739C13.2249 4.09673 13.1372 4.21886 13.0203 4.30829C12.9034 4.39773 12.7625 4.45044 12.6156 4.45976C12.4687 4.46907 12.3224 4.43457 12.1951 4.36062C12.0678 4.28667 11.9654 4.17661 11.9007 4.04437L11.865 3.95739L11.6048 3.19461L10.8413 2.9344C10.7019 2.88705 10.5797 2.79938 10.4902 2.68251C10.4007 2.56564 10.3479 2.42483 10.3385 2.27792C10.3291 2.13101 10.3635 1.98462 10.4374 1.8573C10.5113 1.72998 10.6213 1.62746 10.7536 1.56273L10.8413 1.52705L11.6041 1.26684L11.8643 0.503317C11.9144 0.356429 12.0092 0.228915 12.1355 0.138653C12.2618 0.0483905 12.4131 -9.31406e-05 12.5683 1.34332e-07Z" fill="white"/>
</svg>
