<svg width="21" height="21" viewBox="0 0 21 21" fill="none" xmlns="http://www.w3.org/2000/svg">
<g clip-path="url(#clip0_985_3578)">
<path d="M4.34548 0H15.6998C18.0999 0 20.0458 1.9459 20.0458 4.34597V15.7003C20.0458 18.1004 18.0999 20.0463 15.6998 20.0463H4.34548C1.94541 20.0463 -0.000488281 18.1004 -0.000488281 15.7003V4.34597C-0.000488281 1.9459 1.94541 0 4.34548 0Z" fill="url(#paint0_linear_985_3578)"/>
<path fill-rule="evenodd" clip-rule="evenodd" d="M11.3174 7.06321L13.9681 11.6832H15.9766C16.0784 11.6832 16.1802 11.6832 16.282 11.6872C16.376 11.6911 16.4621 11.7028 16.5522 11.7302C16.7401 11.785 16.9045 11.8947 17.022 12.0513C17.1395 12.2079 17.2021 12.3958 17.2021 12.5916C17.2021 12.7874 17.1395 12.9792 17.022 13.1319C16.9045 13.2885 16.7401 13.3981 16.5522 13.453C16.4621 13.4765 16.3721 13.4882 16.282 13.496C16.1959 13.4999 16.1137 13.4999 16.0275 13.4999H15.0135L15.7495 14.7802C15.8004 14.8703 15.8513 14.9564 15.8983 15.0465C15.9414 15.1287 15.9766 15.2148 15.9962 15.3049C16.0432 15.4967 16.0314 15.6925 15.957 15.8765C15.8827 16.0566 15.7495 16.2093 15.5812 16.3072C15.4128 16.4051 15.2171 16.4442 15.0252 16.4207C14.8294 16.3973 14.6532 16.3072 14.5162 16.1702C14.4497 16.1036 14.3948 16.0331 14.3439 15.9548C14.2891 15.8687 14.2382 15.7826 14.1873 15.6925L11.0003 10.1367C10.691 9.60031 10.5696 8.97387 10.6714 8.36308C10.738 7.94023 10.9181 7.47823 11.3174 7.06321ZM4.71233 13.9502C5.90649 13.6409 6.43506 14.3848 6.48987 14.4709L5.7812 15.6964C5.7303 15.7826 5.67941 15.8726 5.62459 15.9548C5.57369 16.0331 5.51888 16.1036 5.45232 16.1702C5.31137 16.3072 5.13518 16.3933 4.94333 16.4168C4.75148 16.4403 4.55572 16.4012 4.38736 16.3033C4.219 16.2054 4.0898 16.0566 4.01149 15.8765C3.9371 15.6964 3.92536 15.5007 3.97234 15.3127C3.99583 15.2227 4.03107 15.1405 4.07022 15.0582C4.11721 14.9682 4.1681 14.882 4.219 14.792L4.71233 13.9502ZM11.6385 3.74304C11.8068 3.84092 11.936 3.9897 12.0104 4.16981C12.0848 4.34991 12.0966 4.54959 12.0496 4.73752C12.0261 4.82758 11.9909 4.9098 11.9517 4.99593C11.9047 5.08598 11.8538 5.17604 11.8068 5.26217L8.13429 11.695H10.7654C11.6189 11.695 12.2375 12.525 11.9869 13.3512C11.9634 13.4334 11.936 13.4882 11.9282 13.5078H4.00758C3.92536 13.5078 3.83922 13.5078 3.757 13.5039C3.66695 13.4999 3.57689 13.4882 3.48684 13.4608C3.29891 13.406 3.13838 13.2963 3.02092 13.1397C2.90346 12.9831 2.84082 12.7952 2.84082 12.5994C2.84082 12.4037 2.90346 12.2157 3.02092 12.0591C3.13838 11.9025 3.30282 11.7929 3.48684 11.742C3.57689 11.7185 3.66303 11.7067 3.757 11.6989C3.8588 11.695 3.95668 11.695 4.05848 11.695H6.0631L8.97999 6.57771L8.22826 5.26217C8.17736 5.17604 8.12646 5.08598 8.08339 4.99593C8.04033 4.91371 8.009 4.83149 7.98551 4.73752C7.93853 4.54959 7.95027 4.34991 8.02466 4.16981C8.09905 3.9897 8.22826 3.84092 8.39662 3.74304C8.56497 3.64516 8.75682 3.60601 8.94867 3.6295C9.14052 3.65299 9.31671 3.74304 9.45766 3.88008C9.52422 3.94664 9.57903 4.01711 9.62993 4.09542C9.68475 4.18155 9.73565 4.26769 9.78654 4.35774L10.0175 4.76493L10.2485 4.35774C10.2994 4.2716 10.3503 4.18155 10.4052 4.09542C10.4561 4.01711 10.5109 3.94664 10.5774 3.88008C10.7145 3.74304 10.8907 3.6569 11.0864 3.6295C11.2744 3.60601 11.4701 3.64516 11.6385 3.74304Z" fill="white"/>
</g>
<rect x="0.503201" y="0.503201" width="19.0399" height="19.0399" stroke="#808B96" stroke-opacity="0.13" stroke-width="1.0064"/>
<defs>
<linearGradient id="paint0_linear_985_3578" x1="10.028" y1="-0.0306959" x2="10.028" y2="20.0156" gradientUnits="userSpaceOnUse">
<stop stop-color="#1AC9FB"/>
<stop offset="1" stop-color="#1D70F1"/>
</linearGradient>
<clipPath id="clip0_985_3578">
<rect width="20.0463" height="20.0463" fill="white"/>
</clipPath>
</defs>
</svg>
