<svg width="14" height="14" viewBox="0 0 14 14" fill="none" xmlns="http://www.w3.org/2000/svg">
<path fill-rule="evenodd" clip-rule="evenodd" d="M6.51318 1.9268C5.37564 1.92505 4.27756 2.34364 3.42983 3.10215C2.5821 3.86067 2.04448 4.90564 1.92023 6.03638C1.79599 7.16711 2.09387 8.30389 2.75667 9.22838C3.41948 10.1529 4.40047 10.7999 5.51124 11.0452V8.23642H4.75572C4.61915 8.23627 4.48822 8.18196 4.39166 8.0854C4.29509 7.98883 4.24078 7.8579 4.24063 7.72134V6.7981C4.24078 6.66153 4.29509 6.5306 4.39166 6.43404C4.48822 6.33747 4.61915 6.28316 4.75572 6.28301H5.50093L5.47542 5.59153V5.58068C5.47542 5.1025 5.55792 4.20694 6.26134 3.7038C6.48659 3.5426 6.69392 3.43948 6.91971 3.37923C7.14225 3.31953 7.36749 3.30596 7.61988 3.30596C8.06277 3.30596 8.36889 3.34992 8.56537 3.37815L8.65656 3.39117C8.84109 3.41505 8.97679 3.57245 8.97679 3.75591V4.77793C8.97679 4.82814 8.96655 4.87782 8.94669 4.92393C8.92684 4.97005 8.89778 5.01163 8.8613 5.04612C8.82482 5.08062 8.78169 5.10731 8.73454 5.12457C8.68739 5.14182 8.63721 5.14927 8.58708 5.14647H8.58654C8.51218 5.14972 8.22289 5.16112 7.9743 5.16112C7.78759 5.16112 7.69369 5.204 7.63942 5.26153C7.58134 5.32395 7.51512 5.46127 7.51512 5.76902V6.28301H8.34175C8.4163 6.2831 8.48995 6.29935 8.55761 6.33064C8.62527 6.36194 8.68535 6.40753 8.73369 6.46428C8.78203 6.52103 8.81749 6.58759 8.83763 6.65937C8.85776 6.73115 8.86209 6.80644 8.85032 6.88005L8.71029 7.80601C8.69015 7.92622 8.62806 8.03541 8.53506 8.11421C8.44206 8.193 8.32415 8.2363 8.20226 8.23642H7.51512V11.0447C8.62535 10.7989 9.60567 10.1517 10.268 9.22735C10.9303 8.30302 11.2279 7.16666 11.1037 6.03635C10.9795 4.90604 10.4422 3.86142 9.59498 3.10297C8.74777 2.34452 7.65029 1.92566 6.51318 1.9268ZM1.35693 6.54028C1.35693 5.17276 1.90018 3.86125 2.86716 2.89426C3.83415 1.92728 5.14566 1.38403 6.51318 1.38403C7.88071 1.38403 9.19222 1.92728 10.1592 2.89426C11.1262 3.86125 11.6694 5.17276 11.6694 6.54028C11.6694 9.12601 9.76596 11.2672 7.28391 11.6395C7.24528 11.6453 7.20586 11.6427 7.16834 11.6318C7.13082 11.621 7.09609 11.6022 7.06651 11.5767C7.03693 11.5512 7.01321 11.5196 6.99696 11.4841C6.98071 11.4485 6.97232 11.4099 6.97236 11.3709V7.96504C6.97236 7.89306 7.00095 7.82403 7.05185 7.77314C7.10274 7.72225 7.17177 7.69366 7.24374 7.69366H8.17838L8.30919 6.82578H7.24374C7.17177 6.82578 7.10274 6.79718 7.05185 6.74629C7.00095 6.6954 6.97236 6.62637 6.97236 6.5544V5.76956C6.97236 5.40211 7.04835 5.09925 7.24374 4.89083C7.44294 4.67806 7.71486 4.6189 7.9743 4.6189C8.13333 4.6189 8.31136 4.61347 8.43348 4.60967V3.90788C8.16415 3.86778 7.89218 3.848 7.61988 3.84872C7.38432 3.84872 7.21389 3.86229 7.05975 3.90354C6.9094 3.9437 6.76068 4.01426 6.57669 4.14507C6.11154 4.47833 6.01818 5.11119 6.01764 5.57634L6.05401 6.54463C6.05532 6.58108 6.04927 6.61742 6.03622 6.65148C6.02317 6.68554 6.00339 6.71662 5.97806 6.74287C5.95273 6.76911 5.92236 6.78998 5.88878 6.80423C5.85521 6.81847 5.8191 6.8258 5.78262 6.82578H4.78394V7.69366H5.78262C5.8546 7.69366 5.92363 7.72225 5.97452 7.77314C6.02541 7.82403 6.05401 7.89306 6.05401 7.96504V11.3709C6.05405 11.4099 6.04565 11.4485 6.02941 11.4841C6.01316 11.5196 5.98943 11.5512 5.95986 11.5767C5.93028 11.6022 5.89554 11.621 5.85802 11.6318C5.82051 11.6427 5.78109 11.6453 5.74246 11.6395C3.2604 11.2672 1.35693 9.12655 1.35693 6.54028Z" fill="#808B96"/>
</svg>
