<svg width="19" height="19" viewBox="0 0 19 19" fill="none" xmlns="http://www.w3.org/2000/svg">
<g clip-path="url(#clip0_1018_6365)">
<path d="M7.72667 8.90625H11.2733C11.1585 7.17489 10.6753 5.488 9.85625 3.95833H9.14375C8.32467 5.488 7.84154 7.17489 7.72667 8.90625ZM6.54708 8.90625C6.63951 7.30051 7.02591 5.72538 7.68708 4.25917C6.68754 4.59824 5.80561 5.21572 5.14505 6.03897C4.48449 6.86221 4.07277 7.85698 3.95833 8.90625H6.54708ZM12.4529 8.90625H15.0417C14.9298 7.86071 14.5228 6.86857 13.8681 6.0457C13.2135 5.22283 12.3382 4.6032 11.3446 4.25917C11.9949 5.72747 12.3705 7.30252 12.4529 8.90625ZM12.4529 10.0938C12.3605 11.6995 11.9741 13.2746 11.3129 14.7408C12.3125 14.4018 13.1944 13.7843 13.855 12.961C14.5155 12.1378 14.9272 11.143 15.0417 10.0938H12.4529ZM6.54708 10.0938H3.95833C4.0702 11.1393 4.47723 12.1314 5.13188 12.9543C5.78653 13.7772 6.66178 14.3968 7.65542 14.7408C7.00515 13.2725 6.6295 11.6975 6.54708 10.0938ZM11.2733 10.0938H7.72667C7.84394 11.8247 8.32692 13.5111 9.14375 15.0417H9.85625C10.6753 13.512 11.1585 11.8251 11.2733 10.0938ZM9.5 0C9.26514 0 9.03555 0.0696457 8.84026 0.20013C8.64498 0.330614 8.49277 0.516076 8.40289 0.733063C8.31301 0.950051 8.2895 1.18882 8.33532 1.41917C8.38114 1.64952 8.49424 1.86111 8.66031 2.02719C8.82639 2.19326 9.03798 2.30636 9.26833 2.35218C9.49868 2.398 9.73745 2.37449 9.95444 2.28461C10.1714 2.19473 10.3569 2.04252 10.4874 1.84724C10.6179 1.65196 10.6875 1.42237 10.6875 1.1875C10.6875 0.872555 10.5624 0.57051 10.3397 0.347811C10.117 0.125111 9.81495 0 9.5 0ZM9.5 16.625C9.26514 16.625 9.03555 16.6946 8.84026 16.8251C8.64498 16.9556 8.49277 17.1411 8.40289 17.3581C8.31301 17.5751 8.2895 17.8138 8.33532 18.0442C8.38114 18.2745 8.49424 18.4861 8.66031 18.6522C8.82639 18.8183 9.03798 18.9314 9.26833 18.9772C9.49868 19.023 9.73745 18.9995 9.95444 18.9096C10.1714 18.8197 10.3569 18.6675 10.4874 18.4722C10.6179 18.277 10.6875 18.0474 10.6875 17.8125C10.6875 17.4976 10.5624 17.1955 10.3397 16.9728C10.117 16.7501 9.81495 16.625 9.5 16.625ZM16.2213 2.77875C16.0543 2.61096 15.8413 2.4965 15.6093 2.44988C15.3772 2.40326 15.1365 2.42657 14.9178 2.51687C14.699 2.60717 14.5119 2.76039 14.3803 2.9571C14.2487 3.15382 14.1784 3.38518 14.1784 3.62188C14.1784 3.85857 14.2487 4.08993 14.3803 4.28665C14.5119 4.48337 14.699 4.63658 14.9178 4.72688C15.1365 4.81718 15.3772 4.84049 15.6093 4.79387C15.8413 4.74725 16.0543 4.63279 16.2213 4.465C16.4422 4.23999 16.566 3.93723 16.566 3.62188C16.566 3.30652 16.4422 3.00376 16.2213 2.77875ZM4.465 14.535C4.29806 14.3672 4.08507 14.2527 3.85302 14.2061C3.62096 14.1595 3.38029 14.1828 3.1615 14.2731C2.94271 14.3634 2.75565 14.5166 2.62403 14.7134C2.4924 14.9101 2.42214 15.1414 2.42214 15.3781C2.42214 15.6148 2.4924 15.8462 2.62403 16.0429C2.75565 16.2396 2.94271 16.3928 3.1615 16.4831C3.38029 16.5734 3.62096 16.5967 3.85302 16.5501C4.08507 16.5035 4.29806 16.389 4.465 16.2213C4.68596 15.9962 4.80976 15.6935 4.80976 15.3781C4.80976 15.0628 4.68596 14.76 4.465 14.535ZM19 9.5C19 9.26513 18.9304 9.03554 18.7999 8.84026C18.6694 8.64498 18.4839 8.49277 18.2669 8.40289C18.0499 8.31301 17.8112 8.2895 17.5808 8.33532C17.3505 8.38114 17.1389 8.49424 16.9728 8.66031C16.8067 8.82639 16.6936 9.03798 16.6478 9.26833C16.602 9.49868 16.6255 9.73745 16.7154 9.95444C16.8053 10.1714 16.9575 10.3569 17.1528 10.4874C17.348 10.6179 17.5776 10.6875 17.8125 10.6875C18.1274 10.6875 18.4295 10.5624 18.6522 10.3397C18.8749 10.117 19 9.81495 19 9.5ZM2.375 9.5C2.375 9.26513 2.30535 9.03554 2.17487 8.84026C2.04439 8.64498 1.85892 8.49277 1.64194 8.40289C1.42495 8.31301 1.18618 8.2895 0.955831 8.33532C0.725478 8.38114 0.513886 8.49424 0.347811 8.66031C0.181736 8.82639 0.068638 9.03798 0.022818 9.26833C-0.0230019 9.49868 0.000514527 9.73745 0.0903936 9.95444C0.180273 10.1714 0.332477 10.3569 0.527761 10.4874C0.723044 10.6179 0.952635 10.6875 1.1875 10.6875C1.50245 10.6875 1.80449 10.5624 2.02719 10.3397C2.24989 10.117 2.375 9.81495 2.375 9.5ZM16.2213 16.2213C16.389 16.0543 16.5035 15.8413 16.5501 15.6093C16.5967 15.3772 16.5734 15.1365 16.4831 14.9178C16.3928 14.699 16.2396 14.5119 16.0429 14.3803C15.8462 14.2487 15.6148 14.1784 15.3781 14.1784C15.1414 14.1784 14.9101 14.2487 14.7134 14.3803C14.5166 14.5119 14.3634 14.699 14.2731 14.9178C14.1828 15.1365 14.1595 15.3772 14.2061 15.6093C14.2527 15.8413 14.3672 16.0543 14.535 16.2213C14.76 16.4422 15.0628 16.566 15.3781 16.566C15.6935 16.566 15.9962 16.4422 16.2213 16.2213ZM4.465 4.465C4.63279 4.29806 4.74725 4.08507 4.79387 3.85302C4.84049 3.62096 4.81718 3.38029 4.72688 3.1615C4.63658 2.94271 4.48337 2.75565 4.28665 2.62403C4.08993 2.4924 3.85857 2.42214 3.62188 2.42214C3.38518 2.42214 3.15382 2.4924 2.9571 2.62403C2.76039 2.75565 2.60717 2.94271 2.51687 3.1615C2.42657 3.38029 2.40326 3.62096 2.44988 3.85302C2.4965 4.08507 2.61096 4.29806 2.77875 4.465C3.00376 4.68596 3.30652 4.80976 3.62188 4.80976C3.93724 4.80976 4.23999 4.68596 4.465 4.465Z" fill="#38CA6E"/>
</g>
<defs>
<clipPath id="clip0_1018_6365">
<rect width="19" height="19" fill="white"/>
</clipPath>
</defs>
</svg>
