<svg width="17" height="18" viewBox="0 0 17 18" fill="none" xmlns="http://www.w3.org/2000/svg">
<g clip-path="url(#clip0_985_1917)">
<path d="M16.1973 15.6834C16.1989 15.9992 16.1334 16.3117 16.0052 16.6002C15.8769 16.8887 15.6888 17.1467 15.4532 17.357C15.2177 17.5673 14.9402 17.7251 14.6391 17.8201C14.3379 17.915 14.02 17.9448 13.7065 17.9076C12.5651 17.7387 11.7287 16.7455 11.7565 15.592L11.7565 2.3307C11.729 1.17601 12.5674 0.182243 13.7103 0.0151822C14.0235 -0.0215016 14.341 0.00874386 14.6417 0.103918C14.9424 0.199092 15.2195 0.357026 15.4546 0.567272C15.6897 0.777518 15.8774 1.03529 16.0055 1.32352C16.1335 1.61176 16.1989 1.9239 16.1973 2.23929L16.1973 15.6834Z" fill="#F9AB00"/>
<path d="M2.2233 13.4859C3.4496 13.4859 4.44368 14.48 4.44368 15.7063C4.44368 16.9325 3.4496 17.9266 2.2233 17.9266C0.997009 17.9266 0.00292969 16.9325 0.00292969 15.7063C0.00292969 14.4801 0.997009 13.4859 2.2233 13.4859ZM8.06557 6.75618C6.83352 6.82374 5.87752 7.85723 5.90617 9.09086L5.90617 15.055C5.90617 16.6736 6.61838 17.6563 7.66187 17.8657C7.98538 17.9313 8.31943 17.9241 8.6398 17.8445C8.96016 17.7649 9.2588 17.6151 9.51405 17.4058C9.7693 17.1965 9.97476 16.933 10.1155 16.6344C10.2563 16.3358 10.3288 16.0097 10.3279 15.6796L10.3279 8.98807C10.3284 8.69225 10.2701 8.39928 10.1562 8.12626C10.0423 7.85323 9.87522 7.60562 9.66463 7.39787C9.45403 7.19011 9.20418 7.02638 8.92963 6.91622C8.65509 6.80606 8.36135 6.75161 8.06557 6.75618Z" fill="#E37400"/>
</g>
<defs>
<clipPath id="clip0_985_1917">
<rect width="16.2" height="17.9649" fill="white"/>
</clipPath>
</defs>
</svg>
