<svg width="16" height="16" viewBox="0 0 16 16" fill="none" xmlns="http://www.w3.org/2000/svg">
<path opacity="0.987" fill-rule="evenodd" clip-rule="evenodd" d="M6.69127 0.0682105C7.5053 -0.0227368 7.98699 -0.0227368 8.86165 0.0682105C10.4099 0.29737 11.8452 1.01304 12.9599 2.11172C12.2066 2.82373 11.4633 3.54614 10.73 4.27874C9.32575 3.08856 7.75831 2.81385 6.02769 3.4546C4.75817 4.03846 3.87414 4.98461 3.37562 6.29305C2.56095 5.68655 1.7569 5.06591 0.963829 4.43144C0.908713 4.40243 0.845763 4.3918 0.78418 4.40112C2.04397 1.97212 4.01262 0.527439 6.69015 0.0670877" fill="#F44336"/>
<path opacity="0.997" fill-rule="evenodd" clip-rule="evenodd" d="M0.781757 4.4011C0.845382 4.39137 0.90564 4.40148 0.962529 4.43142C1.7556 5.06589 2.55965 5.68653 3.37432 6.29303C3.24612 6.80285 3.16531 7.32343 3.13291 7.84812C3.16061 8.35563 3.24108 8.85378 3.37432 9.34258L0.842388 11.358C-0.260208 9.05401 -0.280419 6.73504 0.781757 4.4011Z" fill="#FFC107"/>
<path opacity="0.999" fill-rule="evenodd" clip-rule="evenodd" d="M12.8392 13.799C12.0508 13.1037 11.2255 12.4516 10.3668 11.8453C11.2276 11.2375 11.7501 10.4036 11.9342 9.34371H7.71582L7.71582 6.41431C10.1486 6.3941 12.5802 6.41468 15.0107 6.47606C15.4718 8.97992 14.9392 11.2375 13.4129 13.2488C13.2315 13.4418 13.0392 13.6254 12.8392 13.799Z" fill="#448AFF"/>
<path opacity="0.993" fill-rule="evenodd" clip-rule="evenodd" d="M3.3747 9.34369C4.29541 11.632 5.98336 12.7001 8.43856 12.5482C9.12778 12.4684 9.78857 12.2276 10.3675 11.8453C11.2269 12.4531 12.051 13.1043 12.84 13.799C11.5899 14.9223 9.99602 15.5888 8.31842 15.6898C7.93728 15.7203 7.55431 15.7203 7.17316 15.6898C4.31524 15.353 2.20511 13.909 0.842773 11.358L3.3747 9.34369Z" fill="#43A047"/>
</svg>
