<svg width="16" height="14" viewBox="0 0 16 14" fill="none" xmlns="http://www.w3.org/2000/svg">
<g clip-path="url(#clip0_985_3534)">
<path d="M0.356116 9.87381L5.39917 1.24017C6.03976 1.61731 9.27 3.40498 9.79168 3.74497L4.74862 12.3791C4.19709 13.1077 -0.342621 10.9795 0.356116 9.87334V9.87381Z" fill="#FBBC04"/>
<path d="M14.8457 9.87357L9.80261 1.24047C9.09758 0.0671644 7.57918 -0.359222 6.332 0.33376C5.08483 1.02674 4.70508 2.51951 5.41011 3.74521L10.4532 12.3794C11.1582 13.5522 12.6767 13.9785 13.9238 13.2856C15.1165 12.5925 15.5507 11.0468 14.8457 9.87458V9.87357Z" fill="#4285F4"/>
<path d="M2.53833 13.6192C3.93644 13.6192 5.06983 12.514 5.06983 11.1506C5.06983 9.78724 3.93644 8.68201 2.53833 8.68201C1.14023 8.68201 0.00683594 9.78724 0.00683594 11.1506C0.00683594 12.514 1.14023 13.6192 2.53833 13.6192Z" fill="#34A853"/>
</g>
<defs>
<clipPath id="clip0_985_3534">
<rect width="15.202" height="13.6472" fill="white"/>
</clipPath>
</defs>
</svg>
