<svg width="14" height="14" viewBox="0 0 14 14" fill="none" xmlns="http://www.w3.org/2000/svg">
<path d="M6.51334 8.68415C7.08914 8.68415 7.64135 8.45541 8.0485 8.04826C8.45566 7.64111 8.68439 7.08889 8.68439 6.51309C8.68439 5.93729 8.45566 5.38508 8.0485 4.97793C7.64135 4.57078 7.08914 4.34204 6.51334 4.34204C5.93754 4.34204 5.38532 4.57078 4.97817 4.97793C4.57102 5.38508 4.34229 5.93729 4.34229 6.51309C4.34229 7.08889 4.57102 7.64111 4.97817 8.04826C5.38532 8.45541 5.93754 8.68415 6.51334 8.68415Z" stroke="#808B96" stroke-width="0.814145" stroke-linecap="round" stroke-linejoin="round"/>
<path d="M1.62842 8.6841V4.34199C1.62842 3.62224 1.91434 2.93197 2.42328 2.42303C2.93222 1.91409 3.62249 1.62817 4.34223 1.62817H8.68434C9.40409 1.62817 10.0944 1.91409 10.6033 2.42303C11.1122 2.93197 11.3982 3.62224 11.3982 4.34199V8.6841C11.3982 9.40384 11.1122 10.0941 10.6033 10.6031C10.0944 11.112 9.40409 11.3979 8.68434 11.3979H4.34223C3.62249 11.3979 2.93222 11.112 2.42328 10.6031C1.91434 10.0941 1.62842 9.40384 1.62842 8.6841Z" stroke="#808B96" stroke-width="0.814145"/>
<path d="M9.49854 3.53331L9.50396 3.52734" stroke="#808B96" stroke-width="0.814145" stroke-linecap="round" stroke-linejoin="round"/>
</svg>
