<svg width="20" height="20" viewBox="0 0 20 20" fill="none" xmlns="http://www.w3.org/2000/svg">
<path d="M14.8726 0.00012207H4.55285C2.03838 0.00012207 0 2.0385 0 4.55297V14.8728C0 17.3872 2.03838 19.4256 4.55285 19.4256H14.8726C17.3871 19.4256 19.4255 17.3872 19.4255 14.8728V4.55297C19.4255 2.0385 17.3871 0.00012207 14.8726 0.00012207Z" fill="url(#paint0_radial_992_6281)"/>
<path d="M14.8726 0.00012207H4.55285C2.03838 0.00012207 0 2.0385 0 4.55297V14.8728C0 17.3872 2.03838 19.4256 4.55285 19.4256H14.8726C17.3871 19.4256 19.4255 17.3872 19.4255 14.8728V4.55297C19.4255 2.0385 17.3871 0.00012207 14.8726 0.00012207Z" fill="url(#paint1_radial_992_6281)"/>
<path d="M9.71181 2.125C7.65104 2.125 7.39236 2.13403 6.58301 2.17083C5.77519 2.20786 5.22376 2.33572 4.74131 2.52337C4.24217 2.71717 3.81883 2.97646 3.39708 3.39836C2.97496 3.82018 2.71568 4.24352 2.52127 4.74243C2.33308 5.22503 2.20507 5.77669 2.16873 6.58413C2.13253 7.39355 2.12305 7.65231 2.12305 9.71315C2.12305 11.774 2.13215 12.0318 2.16888 12.8412C2.20606 13.649 2.33392 14.2004 2.52142 14.6829C2.71537 15.182 2.97466 15.6054 3.39655 16.0271C3.81822 16.4492 4.24156 16.7091 4.74033 16.9029C5.22316 17.0906 5.77466 17.2184 6.58233 17.2555C7.39175 17.2923 7.6502 17.3013 9.7109 17.3013C11.7719 17.3013 12.0297 17.2923 12.8391 17.2555C13.6469 17.2184 14.1989 17.0906 14.6818 16.9029C15.1807 16.7091 15.6034 16.4492 16.025 16.0271C16.4471 15.6054 16.7063 15.182 16.9008 14.6831C17.0873 14.2004 17.2154 13.6489 17.2534 12.8413C17.2897 12.032 17.2992 11.774 17.2992 9.71315C17.2992 7.65231 17.2897 7.3937 17.2534 6.58428C17.2154 5.77646 17.0873 5.22511 16.9008 4.74266C16.7063 4.24352 16.4471 3.82018 16.025 3.39836C15.603 2.97631 15.1808 2.71702 14.6813 2.52345C14.1976 2.33572 13.6458 2.20779 12.838 2.17083C12.0286 2.13403 11.7709 2.125 9.70945 2.125H9.71181ZM9.03108 3.49245C9.23315 3.49214 9.45859 3.49245 9.71181 3.49245C11.7379 3.49245 11.978 3.49973 12.7781 3.53608C13.5179 3.56992 13.9195 3.69353 14.187 3.79741C14.5411 3.93491 14.7935 4.09934 15.059 4.365C15.3246 4.63058 15.4889 4.88349 15.6268 5.23763C15.7307 5.50473 15.8544 5.90629 15.8881 6.64613C15.9245 7.44606 15.9324 7.6863 15.9324 9.71141C15.9324 11.7365 15.9245 11.9768 15.8881 12.7767C15.8543 13.5165 15.7307 13.9181 15.6268 14.1853C15.4893 14.5394 15.3246 14.7915 15.059 15.057C14.7934 15.3226 14.5412 15.4869 14.187 15.6245C13.9198 15.7288 13.5179 15.8521 12.7781 15.886C11.9781 15.9223 11.7379 15.9302 9.71181 15.9302C7.68564 15.9302 7.44548 15.9223 6.64562 15.886C5.90578 15.8518 5.50422 15.7282 5.23651 15.6243C4.88245 15.4868 4.62946 15.3224 4.36388 15.0568C4.0983 14.7912 3.93394 14.5389 3.79607 14.1847C3.69219 13.9175 3.56842 13.5159 3.53473 12.7761C3.49839 11.9761 3.4911 11.7359 3.4911 9.70951C3.4911 7.68311 3.49839 7.44417 3.53473 6.64423C3.56858 5.90439 3.69219 5.50283 3.79607 5.23535C3.93364 4.88122 4.0983 4.62831 4.36396 4.36272C4.62962 4.09714 4.88245 3.93271 5.23659 3.79491C5.50407 3.69057 5.90578 3.56727 6.64562 3.53327C7.34562 3.50163 7.61689 3.49214 9.03108 3.49055V3.49245ZM13.7623 4.75237C13.2596 4.75237 12.8518 5.15985 12.8518 5.66264C12.8518 6.16535 13.2596 6.57321 13.7623 6.57321C14.265 6.57321 14.6729 6.16535 14.6729 5.66264C14.6729 5.15993 14.265 4.75207 13.7623 4.75207V4.75237ZM9.71181 5.8163C7.55983 5.8163 5.81503 7.5611 5.81503 9.71315C5.81503 11.8652 7.55983 13.6092 9.71181 13.6092C11.8639 13.6092 13.6081 11.8652 13.6081 9.71315C13.6081 7.56117 11.8637 5.8163 9.71166 5.8163H9.71181ZM9.71181 7.18374C11.1087 7.18374 12.2412 8.31611 12.2412 9.71315C12.2412 11.11 11.1087 12.2426 9.71181 12.2426C8.31492 12.2426 7.18247 11.11 7.18247 9.71315C7.18247 8.31611 8.31484 7.18374 9.71181 7.18374Z" fill="white"/>
<defs>
<radialGradient id="paint0_radial_992_6281" cx="0" cy="0" r="1" gradientUnits="userSpaceOnUse" gradientTransform="translate(5.15989 20.9217) rotate(-90) scale(19.2521 17.906)">
<stop stop-color="#FFDD55"/>
<stop offset="0.1" stop-color="#FFDD55"/>
<stop offset="0.5" stop-color="#FF543E"/>
<stop offset="1" stop-color="#C837AB"/>
</radialGradient>
<radialGradient id="paint1_radial_992_6281" cx="0" cy="0" r="1" gradientUnits="userSpaceOnUse" gradientTransform="translate(-3.25383 1.39948) rotate(78.68) scale(8.60579 35.4733)">
<stop stop-color="#3771C8"/>
<stop offset="0.128" stop-color="#3771C8"/>
<stop offset="1" stop-color="#6600FF" stop-opacity="0"/>
</radialGradient>
</defs>
</svg>
