<svg width="18" height="18" viewBox="0 0 18 18" fill="none" xmlns="http://www.w3.org/2000/svg">
<g clip-path="url(#clip0_985_1956)">
<path d="M16.2805 0.421024L1.68406 0.421024C1.35287 0.417654 1.03388 0.545802 0.797065 0.777351C0.560254 1.0089 0.42497 1.32494 0.420898 1.65611L0.420898 16.3116C0.425707 16.6422 0.561314 16.9576 0.798045 17.1885C1.03478 17.4194 1.35335 17.5472 1.68406 17.5438L16.2805 17.5438C16.6118 17.5465 16.9305 17.4179 17.1672 17.1862C17.4039 16.9545 17.5393 16.6385 17.5437 16.3073L17.5437 1.6519C17.5378 1.3217 17.4018 1.00717 17.1653 0.776681C16.9287 0.546196 16.6108 0.418383 16.2805 0.421024Z" fill="#0076B2"/>
<path d="M2.95601 6.83928H5.49777L5.49777 15.0175H2.95601L2.95601 6.83928ZM4.22759 2.7691C4.51912 2.7691 4.8041 2.85557 5.04647 3.01756C5.28885 3.17955 5.47773 3.4098 5.58923 3.67916C5.70073 3.94852 5.72983 4.2449 5.67286 4.53081C5.61588 4.81671 5.47538 5.07929 5.26915 5.28534C5.06291 5.49138 4.80019 5.63162 4.51423 5.68833C4.22827 5.74503 3.93192 5.71565 3.66266 5.60389C3.39341 5.49214 3.16335 5.30303 3.00158 5.0605C2.83982 4.81797 2.75363 4.53291 2.75391 4.24138C2.75428 3.85078 2.90971 3.47631 3.18603 3.20024C3.46236 2.92417 3.83699 2.7691 4.22759 2.7691ZM7.09215 6.83928H9.52864V7.96209H9.56233C9.90198 7.31928 10.73 6.64138 11.9665 6.64138C14.5406 6.63577 15.0178 8.32981 15.0178 10.5263V15.0175H12.476V11.0386C12.476 10.0912 12.4592 8.87156 11.1553 8.87156C9.85145 8.87156 9.6297 9.90454 9.6297 10.9768L9.6297 15.0175L7.09215 15.0175L7.09215 6.83928Z" fill="white"/>
</g>
<defs>
<clipPath id="clip0_985_1956">
<rect width="17.9649" height="17.9649" fill="white"/>
</clipPath>
</defs>
</svg>
