<svg width="25" height="17" viewBox="0 0 25 17" fill="none" xmlns="http://www.w3.org/2000/svg">
<g clip-path="url(#clip0_226_452)">
<path d="M2.63151 10.652C2.63151 11.5806 2.83536 12.2935 3.10172 12.7248C3.45101 13.2897 3.97185 13.529 4.50295 13.529C5.18794 13.529 5.8146 13.3589 7.02214 11.6888C7.98964 10.3502 9.12964 8.47102 9.8966 7.29302L11.1956 5.29724C12.098 3.91121 13.1423 2.37043 14.3399 1.326C15.3172 0.473536 16.3718 0 17.4331 0C19.215 0 20.9122 1.03256 22.2112 2.96917C23.6328 5.09006 24.3229 7.76152 24.3229 10.5184C24.3229 12.1573 23.9999 13.3615 23.4502 14.3129C22.9191 15.233 21.8839 16.1523 20.1427 16.1523V13.529C21.6336 13.529 22.0057 12.159 22.0057 10.5911C22.0057 8.35693 21.4848 5.87735 20.3373 4.10575C19.5228 2.849 18.4675 2.08118 17.3064 2.08118C16.0506 2.08118 15.04 3.02825 13.9042 4.71721C13.3005 5.61441 12.6805 6.70787 11.9846 7.94163L11.2184 9.29897C9.67926 12.0279 9.28941 12.6494 8.51988 13.6753C7.17099 15.4716 6.01931 16.1523 4.50295 16.1523C2.70427 16.1523 1.56674 15.3733 0.862377 14.1996C0.287294 13.2431 0.00488281 11.9882 0.00488281 10.5582L2.63151 10.652Z" fill="#0081FB"/>
<path d="M2.07568 3.15431C3.27999 1.29816 5.01778 0 7.011 0C8.16544 0 9.31294 0.341687 10.5113 1.32011C11.822 2.38981 13.219 4.15135 14.9619 7.05459L15.587 8.09637C17.0956 10.6098 17.9539 11.9027 18.4562 12.5126C19.1024 13.2956 19.5548 13.529 20.1425 13.529C21.6334 13.529 22.0055 12.159 22.0055 10.5911L24.3227 10.5184C24.3227 12.1573 23.9997 13.3615 23.45 14.3129C22.9189 15.233 21.8837 16.1523 20.1425 16.1523C19.0601 16.1523 18.1011 15.9172 17.0406 14.9167C16.2254 14.1489 15.2724 12.7848 14.5391 11.5585L12.3581 7.91541C11.2639 6.0871 10.26 4.72396 9.67914 4.10651C9.05428 3.4427 8.25084 2.64097 6.96882 2.64097C5.93122 2.64097 5.04998 3.36918 4.31256 4.48287L2.07568 3.15431Z" fill="url(#paint0_linear_226_452)"/>
<path d="M6.96895 2.64097C5.93135 2.64097 5.05011 3.36918 4.31268 4.48287C3.27005 6.0567 2.63151 8.40082 2.63151 10.652C2.63151 11.5806 2.83536 12.2935 3.10172 12.7248L0.862377 14.1996C0.287294 13.2431 0.00488281 11.9882 0.00488281 10.5582C0.00488281 7.95768 0.718654 5.24737 2.0759 3.15431C3.28021 1.29816 5.018 0 7.01122 0L6.96895 2.64097Z" fill="url(#paint1_linear_226_452)"/>
</g>
<defs>
<linearGradient id="paint0_linear_226_452" x1="5.16312" y1="9.03461" x2="21.8874" y2="9.8793" gradientUnits="userSpaceOnUse">
<stop stop-color="#0064E1"/>
<stop offset="0.4" stop-color="#0064E1"/>
<stop offset="0.83" stop-color="#0073EE"/>
<stop offset="1" stop-color="#0082FB"/>
</linearGradient>
<linearGradient id="paint1_linear_226_452" x1="3.81037" y1="11.7547" x2="3.81037" y2="5.58144" gradientUnits="userSpaceOnUse">
<stop stop-color="#0082FB"/>
<stop offset="1" stop-color="#0064E0"/>
</linearGradient>
<clipPath id="clip0_226_452">
<rect width="24.3276" height="16.2437" fill="white"/>
</clipPath>
</defs>
</svg>
