<svg width="18" height="18" viewBox="0 0 18 18" fill="none" xmlns="http://www.w3.org/2000/svg">
<g clip-path="url(#clip0_985_1962)">
<path d="M1.94035 10.8842C1.94035 11.5684 2.09123 12.0982 2.28772 12.414C2.54737 12.8316 2.92982 13.007 3.32281 13.007C3.82807 13.007 4.29123 12.8807 5.18246 11.6491C5.89825 10.6596 6.74035 9.27366 7.30526 8.39997L8.26316 6.92629C8.92982 5.90173 9.70175 4.76489 10.586 3.99296C11.3123 3.36489 12.0912 3.01752 12.8737 3.01752C14.1895 3.01752 15.4421 3.77892 16.4035 5.2105C17.4526 6.77892 17.9649 8.75085 17.9649 10.7859C17.9649 11.9965 17.7263 12.8877 17.3193 13.5894C16.9263 14.2701 16.1614 14.9473 14.8772 14.9473V13.0105C15.9789 13.0105 16.2526 12 16.2526 10.8386C16.2526 9.18945 15.8667 7.35787 15.0211 6.0491C14.4211 5.11927 13.6386 4.55436 12.7825 4.55436C11.8561 4.55436 11.1088 5.2526 10.2702 6.50173C9.82456 7.16489 9.36491 7.9719 8.85263 8.88418L8.28772 9.88769C7.15088 11.9052 6.86316 12.3614 6.29474 13.1193C5.29825 14.4456 4.44912 14.9509 3.32632 14.9509C1.99649 14.9509 1.15789 14.3754 0.635088 13.5087C0.207018 12.8 0 11.8737 0 10.8175L1.94035 10.8842Z" fill="#0081FB"/>
<path d="M1.53027 5.34734C2.4215 3.97541 3.7022 3.01752 5.17589 3.01752C6.02852 3.01752 6.87764 3.27015 7.76185 3.99296C8.73027 4.78243 9.76185 6.08418 11.0496 8.22804L11.5127 8.99646C12.6285 10.8526 13.2601 11.807 13.632 12.2596C14.1092 12.8386 14.4426 13.0105 14.8776 13.0105C15.9794 13.0105 16.2531 12 16.2531 10.8386L17.9654 10.7859C17.9654 11.9965 17.7268 12.8877 17.3197 13.5894C16.9268 14.2701 16.1619 14.9473 14.8776 14.9473C14.0776 14.9473 13.3689 14.7754 12.5864 14.0351C11.9829 13.4666 11.2812 12.4596 10.7373 11.5544L9.12676 8.86313C8.31975 7.51225 7.57589 6.50524 7.14782 6.0491C6.68466 5.55787 6.09168 4.96489 5.14431 4.96489C4.3794 4.96489 3.72676 5.50173 3.1829 6.32629L1.53027 5.34734Z" fill="url(#paint0_linear_985_1962)"/>
<path d="M5.14386 4.96839C4.37895 4.96839 3.72632 5.50524 3.18246 6.3298C2.41053 7.4912 1.94035 9.22453 1.94035 10.8877C1.94035 11.5719 2.09123 12.1017 2.28772 12.4175L0.635088 13.5087C0.207018 12.8 0 11.8737 0 10.8175C0 8.89471 0.526316 6.89471 1.52982 5.34734C2.42105 3.97541 3.70175 3.01752 5.17544 3.01752L5.14386 4.96839Z" fill="url(#paint1_linear_985_1962)"/>
</g>
<defs>
<linearGradient id="paint0_linear_985_1962" x1="3.8948" y1="8.67324" x2="16.2646" y2="9.29797" gradientUnits="userSpaceOnUse">
<stop stop-color="#0064E1"/>
<stop offset="0.4" stop-color="#0064E1"/>
<stop offset="0.83" stop-color="#0073EE"/>
<stop offset="1" stop-color="#0082FB"/>
</linearGradient>
<linearGradient id="paint1_linear_985_1962" x1="2.58796" y1="11.7" x2="2.58796" y2="7.13945" gradientUnits="userSpaceOnUse">
<stop stop-color="#0082FB"/>
<stop offset="1" stop-color="#0064E0"/>
</linearGradient>
<clipPath id="clip0_985_1962">
<rect width="17.9649" height="17.9649" fill="white"/>
</clipPath>
</defs>
</svg>
