<svg width="21" height="21" viewBox="0 0 21 21" fill="none" xmlns="http://www.w3.org/2000/svg">
<path d="M10.064 0C4.50522 0 0 4.50522 0 10.064C0 14.3294 2.6536 17.9737 6.39616 19.4401C6.30967 18.642 6.22712 17.4194 6.43154 16.5506C6.61631 15.7643 7.61092 11.55 7.61092 11.55C7.61092 11.55 7.30821 10.9486 7.30821 10.0562C7.30821 8.65663 8.11805 7.61092 9.12838 7.61092C9.9854 7.61092 10.4021 8.25564 10.4021 9.0301C10.4021 9.89498 9.85174 11.1844 9.56868 12.3795C9.33281 13.382 10.0719 14.1997 11.0586 14.1997C12.8474 14.1997 14.2233 12.3127 14.2233 9.59227C14.2233 7.18241 12.4935 5.4959 10.0208 5.4959C7.15489 5.49197 5.47624 7.63844 5.47624 9.8596C5.47624 10.7245 5.8104 11.6523 6.22711 12.1555C6.30967 12.2537 6.32147 12.3442 6.29788 12.4424C6.22318 12.7609 6.05021 13.4449 6.01876 13.5825C5.97551 13.7673 5.8733 13.8066 5.68067 13.7162C4.42267 13.1304 3.63642 11.2945 3.63642 9.81635C3.63642 6.6399 5.94406 3.72683 10.2842 3.72683C13.7751 3.72683 16.4877 6.21532 16.4877 9.54117C16.4877 13.0125 14.3019 15.8037 11.267 15.8037C10.2488 15.8037 9.28957 15.2729 8.95934 14.6479C8.95934 14.6479 8.45614 16.5703 8.33427 17.042C8.10626 17.9147 7.49298 19.0116 7.08413 19.6799C8.02763 19.9708 9.02617 20.128 10.064 20.128C15.6228 20.128 20.128 15.6228 20.128 10.064C20.128 4.50522 15.6189 0 10.064 0Z" fill="#E60023"/>
</svg>
