<svg width="32" height="32" viewBox="0 0 32 32" fill="none" xmlns="http://www.w3.org/2000/svg">
<path fill-rule="evenodd" clip-rule="evenodd" d="M15.75 31.5C17.8183 31.5 19.8664 31.0926 21.7773 30.3011C23.6881 29.5096 25.4244 28.3495 26.8869 26.8869C28.3495 25.4244 29.5096 23.6881 30.3011 21.7773C31.0926 19.8664 31.5 17.8183 31.5 15.75C31.5 13.6817 31.0926 11.6336 30.3011 9.72274C29.5096 7.81186 28.3495 6.07559 26.8869 4.61307C25.4244 3.15055 23.6881 1.99041 21.7773 1.1989C19.8664 0.407386 17.8183 -3.08204e-08 15.75 0C11.5728 6.22445e-08 7.56677 1.65937 4.61307 4.61307C1.65937 7.56677 0 11.5728 0 15.75C0 19.9272 1.65937 23.9332 4.61307 26.8869C7.56677 29.8406 11.5728 31.5 15.75 31.5ZM13.6202 8.7325L23.4972 14.2205C23.7699 14.3721 23.9971 14.5938 24.1553 14.8628C24.3135 15.1317 24.3969 15.438 24.3969 15.75C24.3969 16.062 24.3135 16.3683 24.1553 16.6372C23.9971 16.9062 23.7699 17.1279 23.4972 17.2795L13.6202 22.7675C13.3004 22.9453 12.9397 23.0364 12.5739 23.0318C12.208 23.0273 11.8497 22.9272 11.5344 22.7415C11.2191 22.5559 10.9578 22.291 10.7763 21.9733C10.5949 21.6555 10.4997 21.2959 10.5 20.93V10.57C10.4997 10.2041 10.5949 9.84446 10.7763 9.52672C10.9578 9.20897 11.2191 8.94414 11.5344 8.75847C11.8497 8.5728 12.208 8.47272 12.5739 8.46817C12.9397 8.46362 13.3004 8.55473 13.6202 8.7325Z" fill="white"/>
</svg>
