<svg width="14" height="14" viewBox="0 0 14 14" fill="none" xmlns="http://www.w3.org/2000/svg">
<g clip-path="url(#clip0_215_1585)">
<path d="M6.10621 1.62823C6.21418 1.62823 6.31772 1.67112 6.39406 1.74746C6.4704 1.8238 6.51329 1.92734 6.51329 2.0353C6.51329 2.14327 6.4704 2.24681 6.39406 2.32315C6.31772 2.39949 6.21418 2.44238 6.10621 2.44238H3.66378C3.33989 2.44238 3.02927 2.57104 2.80025 2.80006C2.57123 3.02908 2.44256 3.33971 2.44256 3.66359V9.36261C2.44256 9.68649 2.57123 9.99711 2.80025 10.2261C3.02927 10.4552 3.33989 10.5838 3.66378 10.5838H9.36279C9.68668 10.5838 9.9973 10.4552 10.2263 10.2261C10.4553 9.99711 10.584 9.68649 10.584 9.36261V7.73432C10.584 7.62635 10.6269 7.52281 10.7032 7.44647C10.7796 7.37013 10.8831 7.32724 10.9911 7.32724C11.099 7.32724 11.2026 7.37013 11.2789 7.44647C11.3553 7.52281 11.3982 7.62635 11.3982 7.73432V9.36261C11.3982 9.90242 11.1837 10.4201 10.802 10.8018C10.4203 11.1835 9.9026 11.398 9.36279 11.398H3.66378C3.12397 11.398 2.60627 11.1835 2.22456 10.8018C1.84286 10.4201 1.62842 9.90242 1.62842 9.36261V3.66359C1.62842 3.12378 1.84286 2.60608 2.22456 2.22437C2.60627 1.84267 3.12397 1.62823 3.66378 1.62823H6.10621ZM8.77661 0.854794C8.84514 0.821313 8.9217 0.807759 8.99756 0.815676C9.07341 0.823593 9.14552 0.852662 9.20566 0.899572L12.8693 3.74908C12.9183 3.78713 12.958 3.83589 12.9853 3.89162C13.0126 3.94736 13.0268 4.0086 13.0268 4.07067C13.0268 4.13273 13.0126 4.19397 12.9853 4.24971C12.958 4.30544 12.9183 4.3542 12.8693 4.39225L9.20566 7.24176C9.14549 7.28857 9.07339 7.31754 8.99756 7.32537C8.92173 7.33321 8.84523 7.31959 8.77676 7.28608C8.70829 7.25257 8.65061 7.2005 8.61028 7.13581C8.56995 7.07112 8.5486 6.9964 8.54865 6.92017V5.71931C6.73148 5.90656 5.59819 7.32562 4.96967 8.48659L4.84185 8.73083C4.80078 8.81278 4.73325 8.87847 4.65019 8.91726C4.56714 8.95605 4.47343 8.96567 4.38422 8.94458C4.29502 8.92348 4.21555 8.87289 4.15867 8.801C4.1018 8.72911 4.07086 8.64013 4.07085 8.54846C4.07085 6.8583 4.49258 5.33992 5.32219 4.23349C6.08586 3.21581 7.18333 2.56694 8.54865 2.45947V1.22116C8.5485 1.14487 8.56979 1.07006 8.61009 1.00529C8.6504 0.940509 8.7081 0.888363 8.77661 0.854794ZM9.36279 2.84945C9.36279 2.95741 9.31991 3.06095 9.24356 3.13729C9.16722 3.21363 9.06368 3.25652 8.95572 3.25652C7.66123 3.25652 6.66227 3.80444 5.97432 4.72198C5.53713 5.30491 5.2188 6.04578 5.04294 6.90389C5.87988 5.86016 7.14425 4.88481 8.95572 4.88481C9.06368 4.88481 9.16722 4.9277 9.24356 5.00404C9.31991 5.08038 9.36279 5.18392 9.36279 5.29188V6.08812L11.9558 4.07067L9.36279 2.0524V2.84945Z" fill="#141617"/>
</g>
<defs>
<clipPath id="clip0_215_1585">
<rect width="13.0263" height="13.0263" fill="white"/>
</clipPath>
</defs>
</svg>
