<svg width="18" height="18" viewBox="0 0 18 18" fill="none" xmlns="http://www.w3.org/2000/svg">
<g clip-path="url(#clip0_985_1937)">
<path d="M0.00683594 13.3965C0.0173623 13.7965 0.020871 14.1965 0.0875377 14.593C0.157713 15.014 0.259468 15.421 0.455959 15.8035C0.719117 16.3193 1.08052 16.7544 1.53666 17.1087C1.86298 17.3649 2.22087 17.5649 2.61736 17.6947C3.1928 17.8807 3.78929 17.9508 4.3928 17.9544C4.76824 17.9579 5.14719 17.9649 5.52263 17.9649C8.25947 17.9544 10.9963 17.9859 13.7332 17.9473C14.0946 17.9438 14.4524 17.8982 14.8103 17.8315C15.4946 17.7052 16.0981 17.414 16.6139 16.9544C17.2174 16.4175 17.6209 15.7614 17.8068 14.9684C17.9261 14.4491 17.9577 13.9228 17.9612 13.3965V13.2912C17.9612 13.2491 17.9472 4.32278 17.9437 4.20699C17.9402 3.88418 17.9156 3.56137 17.856 3.24208C17.7823 2.8526 17.677 2.47365 17.491 2.12278C17.2946 1.75085 17.0489 1.41751 16.7437 1.12629C16.277 0.680672 15.7402 0.361374 15.1121 0.196461C14.5472 0.0455843 13.9682 0.0104965 13.3858 0.0140053C13.3858 0.0140053 13.3823 0.00698778 13.3823 0.003479L4.57877 0.003479V0.0140053C4.24894 0.0210229 3.91912 0.0175141 3.58929 0.0596194C3.2314 0.0982158 2.8735 0.164883 2.53315 0.291198C1.99631 0.491198 1.52964 0.79997 1.13315 1.2105C0.684029 1.67716 0.364731 2.21751 0.19631 2.84909C0.0454324 3.4105 0.0138535 3.98243 0.0138535 4.56137" fill="#FFFC00"/>
<path d="M9.06312 15.1579C9.02453 15.1579 8.98944 15.1579 8.96488 15.1544C8.94383 15.1579 8.92277 15.1579 8.89821 15.1579C8.11576 15.1579 7.59295 14.786 7.12979 14.4597C6.79997 14.2246 6.48769 14.0035 6.11927 13.9439C5.94032 13.9158 5.76137 13.8983 5.58944 13.8983C5.27716 13.8983 5.03155 13.9474 4.8526 13.9825C4.74383 14.0035 4.64558 14.0211 4.5719 14.0211C4.4947 14.0211 4.39997 14.0035 4.36137 13.8702C4.32979 13.7649 4.30874 13.6632 4.28769 13.5649C4.23505 13.3193 4.19646 13.1684 4.10172 13.1544C3.11927 13.0035 2.54032 12.779 2.42453 12.5088C2.414 12.4807 2.40698 12.4527 2.40348 12.4246C2.39997 12.3439 2.45611 12.2737 2.53681 12.2597C3.31576 12.1298 4.01049 11.7193 4.59997 11.0351C5.05611 10.5053 5.28067 9.99651 5.30172 9.94037C5.30172 9.93686 5.30523 9.93686 5.30523 9.93335C5.41751 9.70177 5.44207 9.50528 5.3719 9.34388C5.24558 9.04563 4.82453 8.9123 4.54734 8.82458C4.47716 8.80353 4.414 8.78247 4.36137 8.76142C4.11576 8.66318 3.71225 8.45967 3.76488 8.17546C3.80348 7.96844 4.07716 7.82458 4.29821 7.82458C4.35786 7.82458 4.414 7.83511 4.45962 7.85616C4.70874 7.97195 4.9333 8.0316 5.12628 8.0316C5.36488 8.0316 5.48067 7.94037 5.50874 7.91581C5.50172 7.78949 5.4947 7.65265 5.48418 7.52283C5.42804 6.62809 5.35786 5.5123 5.64207 4.87019C6.4947 2.95441 8.30523 2.80704 8.84207 2.80704C8.85611 2.80704 9.07365 2.80353 9.07365 2.80353H9.10523C9.64207 2.80353 11.4561 2.9509 12.3087 4.86669C12.5929 5.50528 12.5228 6.62458 12.4666 7.51932L12.4631 7.56142C12.4561 7.68423 12.4491 7.80002 12.4421 7.90879C12.4701 7.93335 12.5754 8.01756 12.7894 8.02458C12.9719 8.01756 13.1859 7.95791 13.4175 7.84914C13.4912 7.81405 13.5684 7.80704 13.6245 7.80704C13.7052 7.80704 13.7894 7.82458 13.8596 7.85265H13.8631C14.0596 7.92283 14.1894 8.06318 14.1929 8.21055C14.1965 8.34739 14.0947 8.55441 13.5929 8.7509C13.5403 8.77195 13.4772 8.793 13.407 8.81405C13.1298 8.90177 12.7122 9.03511 12.5824 9.33335C12.5122 9.49476 12.5368 9.69476 12.6491 9.92283C12.6491 9.92633 12.6526 9.92634 12.6526 9.92984C12.6877 10.0105 13.5333 11.9369 15.4175 12.2491C15.4982 12.2632 15.5544 12.3334 15.5508 12.4141C15.5508 12.4421 15.5438 12.4702 15.5298 12.5018C15.414 12.7719 14.8351 12.993 13.8526 13.1439C13.7614 13.1579 13.7228 13.3088 13.6701 13.5509C13.6491 13.6527 13.6245 13.7509 13.5965 13.8527C13.5684 13.9509 13.5052 13.9965 13.4035 13.9965H13.3894C13.3228 13.9965 13.228 13.986 13.1087 13.9614C12.9017 13.9193 12.6666 13.8842 12.3719 13.8842C12.2 13.8842 12.021 13.8983 11.8421 13.9298C11.4772 13.9895 11.1649 14.2105 10.8351 14.4456C10.3719 14.786 9.84558 15.1579 9.06312 15.1579Z" fill="white"/>
<path d="M9.10894 2.9649C9.6142 2.9649 11.351 3.10174 12.1686 4.93683C12.4388 5.54034 12.3686 6.63507 12.3124 7.51578C12.3054 7.65613 12.2949 7.78946 12.2879 7.91928L12.2844 7.97542L12.323 8.01753C12.337 8.03507 12.4774 8.17893 12.7896 8.19297H12.7967C13.0037 8.18595 13.2353 8.12279 13.4879 8.0035C13.5265 7.98595 13.5756 7.97893 13.6282 7.97893C13.6879 7.97893 13.751 7.98946 13.8037 8.01051L13.8107 8.01402C13.944 8.05964 14.0353 8.14735 14.0388 8.22806C14.0388 8.27367 14.0072 8.43507 13.537 8.61753C13.4914 8.63507 13.4317 8.65613 13.3616 8.67718C13.0563 8.77542 12.5967 8.91928 12.4423 9.2842C12.3546 9.49121 12.3791 9.73332 12.5124 10.007C12.5686 10.1368 13.4388 12.0982 15.3967 12.421C15.3967 12.4316 15.3931 12.4421 15.3896 12.4526C15.3581 12.5298 15.144 12.8 13.8317 13.0035C13.6247 13.0351 13.5756 13.2667 13.516 13.5333C13.4949 13.6281 13.4739 13.7263 13.4423 13.8245C13.4317 13.8561 13.4317 13.8561 13.4002 13.8561H13.3861C13.3265 13.8561 13.2388 13.8456 13.137 13.8245C12.951 13.7895 12.6949 13.7438 12.3686 13.7438C12.1861 13.7438 12.0002 13.7614 11.8107 13.7895C11.4072 13.8561 11.0809 14.0877 10.737 14.3333C10.2739 14.6631 9.79315 15 9.05982 15C9.02824 15 8.99666 15 8.96508 14.9965H8.95104C8.9335 14.9965 8.91596 15 8.8949 15C8.16157 15 7.68087 14.6596 7.21771 14.3333C6.87034 14.0877 6.54403 13.8561 6.14403 13.7895C5.95455 13.7579 5.76859 13.7438 5.58613 13.7438C5.25982 13.7438 5.00368 13.793 4.81771 13.8316C4.71596 13.8526 4.62824 13.8702 4.56859 13.8702C4.51947 13.8702 4.51947 13.8667 4.50894 13.8316C4.48087 13.7298 4.45631 13.6316 4.43526 13.5368C4.37561 13.2702 4.32648 13.0386 4.11947 13.007C2.80718 12.8035 2.59666 12.5333 2.56157 12.4561C2.55806 12.4421 2.55455 12.4351 2.55455 12.4245C4.51245 12.1017 5.38262 10.1403 5.43876 10.0105C5.5721 9.73683 5.59666 9.49472 5.50894 9.28771C5.35455 8.92279 4.8949 8.77542 4.58964 8.68069C4.51947 8.65964 4.45982 8.63858 4.4142 8.62104C4.01771 8.46314 3.89841 8.30876 3.91596 8.21051C3.93701 8.10174 4.12648 7.98946 4.2949 7.98946C4.3335 7.98946 4.36508 7.99648 4.38964 8.007C4.65982 8.13332 4.90543 8.19648 5.12297 8.19648C5.46333 8.19648 5.6142 8.03858 5.63175 8.02104L5.67034 7.97893L5.66683 7.92279C5.65982 7.79297 5.6528 7.65964 5.64227 7.51928C5.58613 6.63858 5.51947 5.54385 5.78613 4.94034C6.60368 3.11227 8.32999 2.97192 8.84227 2.97192C8.85631 2.97192 9.07736 2.96841 9.07736 2.96841C9.0914 2.9649 9.09841 2.9649 9.10894 2.9649ZM9.10894 2.64911H9.07385C8.98964 2.64911 8.85631 2.65262 8.84227 2.65262C8.54403 2.65262 7.94403 2.69472 7.30192 2.97893C6.9335 3.14034 6.60368 3.36139 6.31947 3.63157C5.97912 3.95437 5.70543 4.35086 5.49841 4.81051C5.19666 5.4842 5.27034 6.62104 5.32648 7.53683C5.3335 7.63507 5.34052 7.73683 5.34403 7.83507C5.29841 7.85613 5.22824 7.87718 5.12297 7.87718C4.95455 7.87718 4.75104 7.82455 4.52297 7.71578C4.45631 7.6842 4.37911 7.67016 4.2949 7.67016C4.15806 7.67016 4.0142 7.70876 3.8914 7.78244C3.7335 7.87367 3.63526 8.00349 3.60719 8.14735C3.58964 8.24209 3.58964 8.43156 3.80017 8.62104C3.91596 8.7263 4.08438 8.82455 4.30192 8.90876C4.35806 8.92981 4.42824 8.95437 4.49841 8.97542C4.74754 9.05613 5.12648 9.17543 5.22473 9.407C5.27385 9.52279 5.2528 9.68069 5.16157 9.86665C5.15806 9.87016 5.15806 9.87718 5.15455 9.88069C5.12999 9.93332 4.91596 10.421 4.47736 10.9333C4.22824 11.2245 3.95104 11.4702 3.65982 11.6561C3.30192 11.8877 2.91596 12.0386 2.50894 12.1052C2.35104 12.1298 2.23525 12.2737 2.24578 12.4351C2.24929 12.4807 2.25982 12.5263 2.27736 12.5719C2.34052 12.7228 2.4914 12.8491 2.7335 12.9614C3.02824 13.0982 3.47385 13.214 4.04929 13.3053C4.07736 13.3614 4.10894 13.5017 4.12999 13.5965C4.15104 13.6982 4.17561 13.8035 4.20718 13.9123C4.24227 14.0316 4.3335 14.1754 4.56859 14.1754C4.65631 14.1754 4.75806 14.1544 4.87736 14.1333C5.04929 14.0982 5.28789 14.0526 5.58262 14.0526C5.74754 14.0526 5.91596 14.0667 6.08789 14.0947C6.41771 14.1509 6.70192 14.3509 7.03175 14.5824C7.51245 14.9228 8.05982 15.3088 8.8914 15.3088C8.91245 15.3088 8.93701 15.3088 8.95806 15.3053C8.98613 15.3053 9.02122 15.3088 9.05631 15.3088C9.8914 15.3088 10.4353 14.9228 10.916 14.5824C11.2458 14.3509 11.53 14.1509 11.8598 14.0947C12.0317 14.0667 12.2002 14.0526 12.3651 14.0526C12.6493 14.0526 12.8703 14.0877 13.0703 14.1263C13.2002 14.1509 13.3019 14.1649 13.3791 14.1649H13.3932C13.5651 14.1649 13.6914 14.0702 13.7405 13.9052C13.7721 13.7965 13.7967 13.6947 13.8177 13.593C13.8388 13.5017 13.8703 13.3614 13.8984 13.3053C14.4774 13.214 14.9195 13.0982 15.2142 12.9614C15.4563 12.8491 15.6037 12.7228 15.6703 12.5719C15.6914 12.5263 15.7019 12.4807 15.7019 12.4316C15.7124 12.2702 15.5967 12.1298 15.4388 12.1017C13.6388 11.8035 12.8282 9.95437 12.7931 9.87718C12.7896 9.87367 12.7896 9.86665 12.7861 9.86314C12.6949 9.67718 12.6739 9.52279 12.723 9.40349C12.8212 9.17192 13.2002 9.05262 13.4493 8.97192C13.523 8.95086 13.5896 8.9263 13.6458 8.90525C13.8914 8.807 14.0668 8.70174 14.1826 8.58244C14.3195 8.43858 14.3475 8.30174 14.3475 8.21402C14.344 7.99648 14.1791 7.807 13.916 7.71227C13.8282 7.67718 13.7265 7.65613 13.6212 7.65613C13.551 7.65613 13.4458 7.66665 13.3475 7.71227C13.137 7.81051 12.9475 7.86314 12.7861 7.87367C12.6984 7.87016 12.6388 7.84911 12.6002 7.83156C12.6037 7.74735 12.6107 7.65964 12.6177 7.57192L12.6212 7.53332C12.6774 6.61753 12.751 5.48069 12.4493 4.807C12.2423 4.34385 11.9651 3.94735 11.6247 3.62455C11.3405 3.35437 11.0072 3.13683 10.6388 2.97192C10.0072 2.69121 9.41069 2.64911 9.10894 2.64911Z" fill="#020202"/>
</g>
<defs>
<clipPath id="clip0_985_1937">
<rect width="17.9649" height="17.9649" fill="white"/>
</clipPath>
</defs>
</svg>
