<svg width="18" height="18" viewBox="0 0 18 18" fill="none" xmlns="http://www.w3.org/2000/svg">
<g clip-path="url(#clip0_985_1949)">
<path d="M10.5577 3.78594L7.44892 0.614014L0.655942 7.34384C-0.221251 8.22103 -0.221251 9.63858 0.655942 10.5158L7.34717 17.2526L10.5121 14.2912L5.41384 8.9298L10.5577 3.78594Z" fill="#4285F4"/>
<path d="M17.3085 7.39297L10.5716 0.656125C9.69442 -0.221068 8.27337 -0.221068 7.39618 0.656125C6.51898 1.53332 6.51898 2.95437 7.39618 3.83156L12.5365 8.97191L7.42775 14.1895L10.5435 17.2281L17.1365 10.7228C17.1962 10.6737 17.2523 10.621 17.3085 10.5684C18.1821 9.69472 18.1821 8.27016 17.3085 7.39297Z" fill="#8AB4F8"/>
<path d="M8.93029 17.9649C10.1414 17.9649 11.1233 16.9831 11.1233 15.7719C11.1233 14.5608 10.1414 13.5789 8.93029 13.5789C7.71914 13.5789 6.7373 14.5608 6.7373 15.7719C6.7373 16.9831 7.71914 17.9649 8.93029 17.9649Z" fill="#246FDB"/>
</g>
<defs>
<clipPath id="clip0_985_1949">
<rect width="17.9649" height="17.9649" fill="white"/>
</clipPath>
</defs>
</svg>
