<svg width="21" height="21" viewBox="0 0 21 21" fill="none" xmlns="http://www.w3.org/2000/svg">
<path d="M18.1168 10.8512L15.6751 9.45112L15.254 9.26898L5.26514 9.33726V14.4085H18.1168V10.8512Z" fill="white"/>
<path d="M13.6717 13.9418C13.7912 13.532 13.7456 13.1564 13.5464 12.8775C13.3642 12.6214 13.057 12.4734 12.6869 12.4564L5.68056 12.3654C5.63498 12.3654 5.5952 12.3427 5.57234 12.3085C5.54947 12.2744 5.54383 12.2288 5.55527 12.1832C5.57797 12.115 5.64626 12.0637 5.72033 12.0579L12.7893 11.967C13.6259 11.9272 14.5366 11.2498 14.8553 10.4189L15.2594 9.36595C15.2765 9.32038 15.2821 9.27496 15.2708 9.22939C14.8157 7.16869 12.9774 5.63202 10.7805 5.63202C8.75421 5.63202 7.0354 6.94114 6.4207 8.75673C6.00395 8.44638 5.48656 8.30233 4.96938 8.35267C3.99604 8.44946 3.21643 9.22923 3.11964 10.2024C3.09693 10.4528 3.114 10.6976 3.17085 10.9252C1.58266 10.9708 0.313477 12.2684 0.313477 13.8678C0.313477 14.0101 0.324909 14.1523 0.34198 14.2947C0.346879 14.3276 0.363301 14.3576 0.388316 14.3795C0.413331 14.4014 0.44531 14.4137 0.478545 14.4142H13.41C13.4839 14.4142 13.5523 14.363 13.575 14.2889L13.6717 13.9418Z" fill="#F38020"/>
<path d="M15.9027 9.4397C15.8401 9.4397 15.7718 9.4397 15.7091 9.44534C15.6636 9.44534 15.6238 9.47948 15.6067 9.52505L15.3336 10.4755C15.2141 10.8854 15.2597 11.2609 15.4589 11.5399C15.641 11.7959 15.9483 11.9439 16.3184 11.961L17.8096 12.052C17.8552 12.052 17.895 12.0747 17.9178 12.1088C17.9407 12.143 17.9463 12.1942 17.9349 12.2341C17.9122 12.3024 17.8439 12.3536 17.7698 12.3594L16.2156 12.4506C15.3732 12.4903 14.4683 13.1677 14.1496 13.9987L14.0357 14.2889C14.013 14.3457 14.0528 14.4027 14.1155 14.4027H19.4542C19.5168 14.4027 19.5737 14.3629 19.5908 14.3003C19.6818 13.9702 19.7331 13.6229 19.7331 13.2645C19.7331 11.1585 18.0143 9.4397 15.9027 9.4397Z" fill="#FAAE40"/>
</svg>
