<svg width="14" height="14" viewBox="0 0 14 14" fill="none" xmlns="http://www.w3.org/2000/svg">
<path d="M5.35626 6.19136C4.06007 6.28136 2.94727 7.20516 2.94727 8.62096C2.94727 9.96696 4.02587 11.058 5.35626 11.058C6.68666 11.058 7.76546 9.96696 7.76546 8.62096L7.69586 5.58296C8.30126 6.05016 9.26826 6.33256 10.1631 6.37776C10.3231 6.38576 10.4767 6.31316 10.5141 6.15716C10.5331 6.07776 10.5473 5.97436 10.5473 5.84256C10.5473 5.71076 10.5333 5.60736 10.5141 5.52796C10.4767 5.37196 10.3229 5.30436 10.1633 5.28836C8.95326 5.16736 7.81386 4.18836 7.65106 3.03236C7.63026 2.88636 7.54846 2.75136 7.40546 2.71416C7.26078 2.67669 7.11192 2.65781 6.96246 2.65796C6.81281 2.65776 6.66374 2.67664 6.51886 2.71416C6.37626 2.75136 6.29106 2.88536 6.28766 3.03296L6.15926 8.62096C6.15926 9.06956 5.79986 9.43336 5.35626 9.43336C4.91267 9.43336 4.55327 9.06956 4.55327 8.62096C4.55327 8.15456 4.94327 7.85436 5.35626 7.77756" stroke="#808B96" stroke-width="0.4" stroke-linecap="round" stroke-linejoin="round"/>
</svg>
