<svg width="16" height="16" viewBox="0 0 16 16" fill="none" xmlns="http://www.w3.org/2000/svg">
<g clip-path="url(#clip0_1018_6357)">
<path fill-rule="evenodd" clip-rule="evenodd" d="M10.7875 0C11.0437 2.2 12.3625 3.75312 14.4968 3.89062V5.97813H14.4843V4.20625C12.35 4.06875 11.125 2.75625 10.8656 0.55625H8.60622V9.8125C8.93122 13.9781 5.68747 14.1031 4.44372 12.5219C5.89997 13.4313 8.2656 12.8406 7.98435 9.25625V0H10.7875ZM4.71872 15.3438C3.44372 15.0813 2.28122 14.3188 1.59997 13.2031C-0.0562761 10.4937 1.43747 6.07812 6.2406 5.625V8.23438H6.23122V6.27812C1.7781 6.9875 1.33122 11.7687 2.5656 13.7594C3.0406 14.525 3.82185 15.0656 4.71872 15.3438Z" fill="#26F4EE"/>
<path fill-rule="evenodd" clip-rule="evenodd" d="M11.4346 0.556244C11.6033 1.99374 12.1846 3.21562 13.1596 3.92812C11.8377 3.41874 11.0658 2.24999 10.8658 0.556244H11.4346ZM14.4815 4.51562C14.6627 4.55312 14.8533 4.58124 15.0502 4.59374V7.06874C13.8127 7.18749 12.7315 6.78124 11.469 6.02187L11.6627 10.2594C11.6627 11.625 11.669 12.25 10.9346 13.5062C9.29084 16.325 6.33146 16.5469 4.32834 15.2062C6.94709 16.2875 10.9096 14.975 10.9002 10.2594V5.63437C12.1627 6.39374 13.244 6.79999 14.4815 6.67812V4.51562ZM6.23146 6.30312C6.49084 6.24999 6.76271 6.20937 7.04709 6.18124V8.79062C6.00646 8.96249 5.34709 9.28124 5.03771 9.87187C4.06584 11.7312 5.31896 13.2062 6.71896 13.4281C5.09084 13.7 3.18146 12.0469 4.31896 9.87187C4.62834 9.28124 5.19084 8.96249 6.23146 8.79062V6.30312Z" fill="#FB2C53"/>
<path fill-rule="evenodd" clip-rule="evenodd" d="M10.8657 0.556244C11.1219 2.75624 12.3501 4.06874 14.4813 4.20624V6.67812C13.2438 6.79999 12.1626 6.39374 10.9001 5.63437V10.2594C10.9094 16.2937 4.41882 16.7531 2.56257 13.7594C1.3282 11.7687 1.77507 6.98749 6.2282 6.27812V8.79062C5.18757 8.96249 4.62507 9.28124 4.3157 9.87187C2.40632 13.5219 9.0657 15.6937 8.6032 9.81249V0.556244H10.8657Z" fill="black"/>
</g>
<defs>
<clipPath id="clip0_1018_6357">
<rect width="16" height="16" fill="white"/>
</clipPath>
</defs>
</svg>
