<svg width="18" height="16" viewBox="0 0 18 16" fill="none" xmlns="http://www.w3.org/2000/svg">
<g clip-path="url(#clip0_985_1944)">
<path d="M16.1263 5.31928C16.1368 5.47717 16.1368 5.63507 16.1368 5.79647C16.1368 10.6631 12.4281 16.2807 5.64912 16.2807V16.2772C3.64561 16.2807 1.68421 15.7087 0 14.6245C0.291228 14.6596 0.582456 14.6772 0.877193 14.6772C2.53684 14.6772 4.14737 14.1228 5.45614 13.0947C3.8807 13.0631 2.49474 12.0351 2.01404 10.5368C2.56491 10.6421 3.13684 10.621 3.67719 10.4737C1.95789 10.1263 0.719298 8.61401 0.719298 6.85963L0.719298 6.81401C1.23158 7.09822 1.80702 7.25612 2.39298 7.27366C0.77193 6.19647 0.273684 4.04208 1.25263 2.35436C3.12281 4.65612 5.88421 6.05612 8.84912 6.20349C8.55088 4.92279 8.9579 3.58244 9.91579 2.68068C11.4 1.28419 13.7333 1.35787 15.1298 2.84208C15.9544 2.68068 16.7474 2.37542 17.4702 1.94735C17.1965 2.79998 16.6175 3.52629 15.8491 3.98594C16.5789 3.89822 17.2947 3.70524 17.9649 3.407C17.4702 4.15086 16.8456 4.79647 16.1263 5.31928Z" fill="#1D9BF0"/>
</g>
<defs>
<clipPath id="clip0_985_1944">
<rect width="17.9649" height="17.9649" fill="white"/>
</clipPath>
</defs>
</svg>
