<svg width="15" height="11" viewBox="0 0 15 11" fill="none" xmlns="http://www.w3.org/2000/svg">
<path d="M2.41622 0C1.7754 0 1.16082 0.254565 0.707693 0.707693C0.254565 1.16082 0 1.7754 0 2.41622V7.9921C0 8.63292 0.254565 9.24749 0.707693 9.70062C1.16082 10.1538 1.7754 10.4083 2.41622 10.4083H7.9921C8.63292 10.4083 9.24749 10.1538 9.70062 9.70062C10.1537 9.24749 10.4083 8.63292 10.4083 7.9921V7.76014L12.8305 9.43291C13.6929 10.0277 14.8705 9.4106 14.8705 8.36234V2.04523C14.8705 0.996968 13.6929 0.378417 12.8305 0.974664L10.4083 2.64817V2.41622C10.4083 1.7754 10.1537 1.16082 9.70062 0.707693C9.24749 0.254565 8.63292 0 7.9921 0H2.41622ZM10.4083 4.00274L13.4639 1.89283C13.4918 1.87357 13.5245 1.86231 13.5583 1.86027C13.5922 1.85823 13.6259 1.86549 13.6559 1.88127C13.6859 1.89704 13.7111 1.92073 13.7286 1.94976C13.7461 1.97879 13.7554 2.01207 13.7553 2.04598V8.36159C13.7554 8.3955 13.7461 8.42878 13.7286 8.45781C13.7111 8.48684 13.6859 8.51053 13.6559 8.5263C13.6259 8.54208 13.5922 8.54934 13.5583 8.5473C13.5245 8.54527 13.4918 8.53401 13.4639 8.51474L10.4083 6.40483V4.00274ZM1.11518 2.41622C1.11518 1.69804 1.69804 1.11518 2.41622 1.11518H7.9921C8.71027 1.11518 9.29314 1.69804 9.29314 2.41622V7.9921C9.29314 8.33716 9.15606 8.66808 8.91207 8.91207C8.66808 9.15606 8.33716 9.29314 7.9921 9.29314H2.41622C2.07116 9.29314 1.74023 9.15606 1.49624 8.91207C1.25225 8.66808 1.11518 8.33716 1.11518 7.9921V2.41622Z" fill="#3C3D51"/>
</svg>
