<svg width="21" height="21" viewBox="0 0 21 21" fill="none" xmlns="http://www.w3.org/2000/svg">
<g clip-path="url(#clip0_985_3553)">
<path d="M19.7074 5.22073C19.4755 4.35585 18.7954 3.67182 17.9265 3.43987C16.358 3.01923 10.064 3.01923 10.064 3.01923C10.064 3.01923 3.77008 3.01923 2.20151 3.43987C1.33663 3.67182 0.652589 4.35192 0.420645 5.22073C0 6.7893 0 10.064 0 10.064C0 10.064 0 13.3388 0.420645 14.9074C0.652589 15.7722 1.3327 16.4563 2.20151 16.6882C3.77008 17.1089 10.064 17.1089 10.064 17.1089C10.064 17.1089 16.358 17.1089 17.9265 16.6882C18.7914 16.4563 19.4755 15.7762 19.7074 14.9074C20.128 13.3388 20.128 10.064 20.128 10.064C20.128 10.064 20.128 6.7893 19.7074 5.22073Z" fill="#FF0000"/>
<path d="M8.05078 13.0833L13.2794 10.0641L8.05078 7.04486V13.0833Z" fill="white"/>
</g>
<defs>
<clipPath id="clip0_985_3553">
<rect width="20.128" height="20.128" fill="white"/>
</clipPath>
</defs>
</svg>
